<mxfile host="app.diagrams.net" modified="2024-02-29T03:16:52.494Z" agent="Mozilla/5.0 (Windows NT 10.0; Win64; x64) AppleWebKit/537.36 (KHTML, like Gecko) Chrome/122.0.0.0 Safari/537.36" etag="6SHl6FbDChpOnfx5wJND" version="23.1.5" type="github">
  <diagram name="Page-1" id="197159a0-c6a4-9194-75a8-e4174976684c">
    <mxGraphModel dx="2298" dy="-221" grid="0" gridSize="10" guides="0" tooltips="1" connect="1" arrows="1" fold="1" page="1" pageScale="1.5" pageWidth="1169" pageHeight="826" background="none" math="0" shadow="0">
      <root>
        <mxCell id="0" style=";html=1;" />
        <mxCell id="1" style=";html=1;" parent="0" />
        <mxCell id="gbWEveyItr_fQbQ7YyOv-2" value="监控平台" style="html=1;align=center;verticalAlign=top;rounded=1;absoluteArcSize=1;arcSize=10;dashed=1;whiteSpace=wrap;" vertex="1" parent="1">
          <mxGeometry x="425" y="1440" width="623" height="589" as="geometry" />
        </mxCell>
        <mxCell id="gbWEveyItr_fQbQ7YyOv-3" style="edgeStyle=orthogonalEdgeStyle;rounded=0;orthogonalLoop=1;jettySize=auto;html=1;exitX=1;exitY=0.5;exitDx=0;exitDy=0;entryX=0;entryY=0.5;entryDx=0;entryDy=0;" edge="1" parent="1" source="gbWEveyItr_fQbQ7YyOv-5" target="gbWEveyItr_fQbQ7YyOv-10">
          <mxGeometry relative="1" as="geometry" />
        </mxCell>
        <mxCell id="gbWEveyItr_fQbQ7YyOv-4" style="edgeStyle=orthogonalEdgeStyle;rounded=0;orthogonalLoop=1;jettySize=auto;html=1;exitX=0.5;exitY=1;exitDx=0;exitDy=0;entryX=0.5;entryY=0;entryDx=0;entryDy=0;" edge="1" parent="1" source="gbWEveyItr_fQbQ7YyOv-5" target="gbWEveyItr_fQbQ7YyOv-58">
          <mxGeometry relative="1" as="geometry" />
        </mxCell>
        <mxCell id="gbWEveyItr_fQbQ7YyOv-5" value="发送流程接口&lt;br&gt;（顺序流、&lt;br&gt;反流转中心）" style="rounded=1;whiteSpace=wrap;html=1;" vertex="1" parent="1">
          <mxGeometry x="437" y="1530" width="120" height="60" as="geometry" />
        </mxCell>
        <mxCell id="gbWEveyItr_fQbQ7YyOv-6" style="edgeStyle=orthogonalEdgeStyle;rounded=0;orthogonalLoop=1;jettySize=auto;html=1;exitX=0.5;exitY=0;exitDx=0;exitDy=0;entryX=0;entryY=0.5;entryDx=0;entryDy=0;" edge="1" parent="1" source="gbWEveyItr_fQbQ7YyOv-7" target="gbWEveyItr_fQbQ7YyOv-5">
          <mxGeometry relative="1" as="geometry" />
        </mxCell>
        <mxCell id="gbWEveyItr_fQbQ7YyOv-7" value="电脑端" style="rounded=1;whiteSpace=wrap;html=1;fillColor=#D4E6FF;" vertex="1" parent="1">
          <mxGeometry x="272" y="1607" width="120" height="60" as="geometry" />
        </mxCell>
        <mxCell id="gbWEveyItr_fQbQ7YyOv-8" style="edgeStyle=orthogonalEdgeStyle;rounded=0;orthogonalLoop=1;jettySize=auto;html=1;exitX=1;exitY=0.5;exitDx=0;exitDy=0;entryX=0;entryY=0.5;entryDx=0;entryDy=0;" edge="1" parent="1" source="gbWEveyItr_fQbQ7YyOv-10" target="gbWEveyItr_fQbQ7YyOv-14">
          <mxGeometry relative="1" as="geometry" />
        </mxCell>
        <mxCell id="gbWEveyItr_fQbQ7YyOv-9" style="edgeStyle=orthogonalEdgeStyle;rounded=0;orthogonalLoop=1;jettySize=auto;html=1;exitX=0.75;exitY=1;exitDx=0;exitDy=0;entryX=0;entryY=0.25;entryDx=0;entryDy=0;" edge="1" parent="1" source="gbWEveyItr_fQbQ7YyOv-10" target="gbWEveyItr_fQbQ7YyOv-31">
          <mxGeometry relative="1" as="geometry" />
        </mxCell>
        <mxCell id="gbWEveyItr_fQbQ7YyOv-10" value="保存推送数据日志" style="rounded=1;whiteSpace=wrap;html=1;" vertex="1" parent="1">
          <mxGeometry x="586" y="1530" width="120" height="60" as="geometry" />
        </mxCell>
        <mxCell id="gbWEveyItr_fQbQ7YyOv-11" style="edgeStyle=orthogonalEdgeStyle;rounded=0;orthogonalLoop=1;jettySize=auto;html=1;exitX=1;exitY=0.5;exitDx=0;exitDy=0;entryX=0.5;entryY=1;entryDx=0;entryDy=0;" edge="1" parent="1" source="gbWEveyItr_fQbQ7YyOv-14" target="gbWEveyItr_fQbQ7YyOv-27">
          <mxGeometry relative="1" as="geometry" />
        </mxCell>
        <mxCell id="gbWEveyItr_fQbQ7YyOv-12" style="edgeStyle=orthogonalEdgeStyle;rounded=0;orthogonalLoop=1;jettySize=auto;html=1;exitX=0.5;exitY=0;exitDx=0;exitDy=0;entryX=0.5;entryY=0;entryDx=0;entryDy=0;" edge="1" parent="1" source="gbWEveyItr_fQbQ7YyOv-14" target="gbWEveyItr_fQbQ7YyOv-10">
          <mxGeometry relative="1" as="geometry" />
        </mxCell>
        <mxCell id="gbWEveyItr_fQbQ7YyOv-13" style="edgeStyle=orthogonalEdgeStyle;rounded=0;orthogonalLoop=1;jettySize=auto;html=1;exitX=1;exitY=0.5;exitDx=0;exitDy=0;entryX=0.5;entryY=0;entryDx=0;entryDy=0;" edge="1" parent="1" source="gbWEveyItr_fQbQ7YyOv-14" target="gbWEveyItr_fQbQ7YyOv-17">
          <mxGeometry relative="1" as="geometry" />
        </mxCell>
        <mxCell id="gbWEveyItr_fQbQ7YyOv-14" value="推送服务" style="rounded=1;whiteSpace=wrap;html=1;" vertex="1" parent="1">
          <mxGeometry x="780" y="1530" width="120" height="60" as="geometry" />
        </mxCell>
        <mxCell id="gbWEveyItr_fQbQ7YyOv-15" style="edgeStyle=orthogonalEdgeStyle;rounded=0;orthogonalLoop=1;jettySize=auto;html=1;exitX=1;exitY=0.5;exitDx=0;exitDy=0;entryX=0;entryY=0.5;entryDx=0;entryDy=0;" edge="1" parent="1" source="gbWEveyItr_fQbQ7YyOv-17" target="gbWEveyItr_fQbQ7YyOv-55">
          <mxGeometry relative="1" as="geometry" />
        </mxCell>
        <mxCell id="gbWEveyItr_fQbQ7YyOv-16" style="edgeStyle=orthogonalEdgeStyle;rounded=0;orthogonalLoop=1;jettySize=auto;html=1;exitX=0.5;exitY=1;exitDx=0;exitDy=0;entryX=1;entryY=0.5;entryDx=0;entryDy=0;" edge="1" parent="1" source="gbWEveyItr_fQbQ7YyOv-17" target="gbWEveyItr_fQbQ7YyOv-19">
          <mxGeometry relative="1" as="geometry" />
        </mxCell>
        <mxCell id="gbWEveyItr_fQbQ7YyOv-17" value="中创交换系统" style="rounded=1;whiteSpace=wrap;html=1;fillColor=#D4E6FF;" vertex="1" parent="1">
          <mxGeometry x="1052" y="1608" width="120" height="60" as="geometry" />
        </mxCell>
        <mxCell id="gbWEveyItr_fQbQ7YyOv-18" style="edgeStyle=orthogonalEdgeStyle;rounded=0;orthogonalLoop=1;jettySize=auto;html=1;exitX=0;exitY=0.5;exitDx=0;exitDy=0;entryX=1;entryY=0.5;entryDx=0;entryDy=0;" edge="1" parent="1" source="gbWEveyItr_fQbQ7YyOv-19" target="gbWEveyItr_fQbQ7YyOv-23">
          <mxGeometry relative="1" as="geometry" />
        </mxCell>
        <mxCell id="gbWEveyItr_fQbQ7YyOv-19" value="接收接口" style="rounded=1;whiteSpace=wrap;html=1;" vertex="1" parent="1">
          <mxGeometry x="920" y="1742" width="120" height="60" as="geometry" />
        </mxCell>
        <mxCell id="gbWEveyItr_fQbQ7YyOv-20" value="流程选择发送到移动端" style="text;html=1;align=center;verticalAlign=middle;resizable=0;points=[];autosize=1;strokeColor=none;fillColor=none;" vertex="1" parent="1">
          <mxGeometry x="288" y="1530" width="140" height="30" as="geometry" />
        </mxCell>
        <mxCell id="gbWEveyItr_fQbQ7YyOv-21" style="edgeStyle=orthogonalEdgeStyle;rounded=0;orthogonalLoop=1;jettySize=auto;html=1;exitX=0.5;exitY=1;exitDx=0;exitDy=0;" edge="1" parent="1" source="gbWEveyItr_fQbQ7YyOv-23" target="gbWEveyItr_fQbQ7YyOv-43">
          <mxGeometry relative="1" as="geometry" />
        </mxCell>
        <mxCell id="gbWEveyItr_fQbQ7YyOv-22" style="edgeStyle=orthogonalEdgeStyle;rounded=0;orthogonalLoop=1;jettySize=auto;html=1;exitX=0;exitY=0.5;exitDx=0;exitDy=0;entryX=1;entryY=0.5;entryDx=0;entryDy=0;" edge="1" parent="1" source="gbWEveyItr_fQbQ7YyOv-23" target="gbWEveyItr_fQbQ7YyOv-56">
          <mxGeometry relative="1" as="geometry" />
        </mxCell>
        <mxCell id="gbWEveyItr_fQbQ7YyOv-23" value="解析、数据处理" style="rounded=1;whiteSpace=wrap;html=1;" vertex="1" parent="1">
          <mxGeometry x="702" y="1712" width="120" height="60" as="geometry" />
        </mxCell>
        <mxCell id="gbWEveyItr_fQbQ7YyOv-24" value="&lt;div style=&quot;text-align: center;&quot;&gt;&lt;span style=&quot;background-color: initial;&quot;&gt;异常报错保存处理错误&lt;/span&gt;&lt;/div&gt;" style="text;whiteSpace=wrap;html=1;" vertex="1" parent="1">
          <mxGeometry x="578" y="1712" width="147" height="40" as="geometry" />
        </mxCell>
        <mxCell id="gbWEveyItr_fQbQ7YyOv-25" style="edgeStyle=orthogonalEdgeStyle;rounded=0;orthogonalLoop=1;jettySize=auto;html=1;exitX=0;exitY=0.5;exitDx=0;exitDy=0;entryX=0.75;entryY=1;entryDx=0;entryDy=0;" edge="1" parent="1">
          <mxGeometry relative="1" as="geometry">
            <mxPoint x="522.0000000000002" y="1851" as="sourcePoint" />
            <mxPoint x="375" y="1666" as="targetPoint" />
          </mxGeometry>
        </mxCell>
        <mxCell id="gbWEveyItr_fQbQ7YyOv-26" value="&lt;span style=&quot;color: rgb(0, 0, 0); font-family: Helvetica; font-size: 12px; font-style: normal; font-variant-ligatures: normal; font-variant-caps: normal; font-weight: 400; letter-spacing: normal; orphans: 2; text-align: center; text-indent: 0px; text-transform: none; widows: 2; word-spacing: 0px; -webkit-text-stroke-width: 0px; background-color: rgb(251, 251, 251); text-decoration-thickness: initial; text-decoration-style: initial; text-decoration-color: initial; float: none; display: inline !important;&quot;&gt;补充完善流程信息&lt;/span&gt;" style="rounded=1;whiteSpace=wrap;html=1;" vertex="1" parent="1">
          <mxGeometry x="509" y="1822" width="120" height="60" as="geometry" />
        </mxCell>
        <mxCell id="gbWEveyItr_fQbQ7YyOv-27" value="保存请求中创&lt;span style=&quot;background-color: initial;&quot;&gt;日志&lt;/span&gt;" style="rounded=1;whiteSpace=wrap;html=1;" vertex="1" parent="1">
          <mxGeometry x="886" y="1450" width="120" height="60" as="geometry" />
        </mxCell>
        <mxCell id="gbWEveyItr_fQbQ7YyOv-28" style="edgeStyle=orthogonalEdgeStyle;rounded=0;orthogonalLoop=1;jettySize=auto;html=1;exitX=0;exitY=0.5;exitDx=0;exitDy=0;entryX=0.5;entryY=1;entryDx=0;entryDy=0;" edge="1" parent="1" source="gbWEveyItr_fQbQ7YyOv-31" target="gbWEveyItr_fQbQ7YyOv-10">
          <mxGeometry relative="1" as="geometry" />
        </mxCell>
        <mxCell id="gbWEveyItr_fQbQ7YyOv-29" style="edgeStyle=orthogonalEdgeStyle;rounded=0;orthogonalLoop=1;jettySize=auto;html=1;exitX=1;exitY=0.5;exitDx=0;exitDy=0;entryX=0.5;entryY=0;entryDx=0;entryDy=0;" edge="1" parent="1" source="gbWEveyItr_fQbQ7YyOv-31" target="gbWEveyItr_fQbQ7YyOv-36">
          <mxGeometry relative="1" as="geometry">
            <Array as="points">
              <mxPoint x="920" y="1656" />
              <mxPoint x="906" y="1656" />
              <mxPoint x="906" y="1639" />
              <mxPoint x="978" y="1639" />
            </Array>
          </mxGeometry>
        </mxCell>
        <mxCell id="gbWEveyItr_fQbQ7YyOv-30" style="edgeStyle=orthogonalEdgeStyle;rounded=0;orthogonalLoop=1;jettySize=auto;html=1;exitX=1;exitY=0.5;exitDx=0;exitDy=0;" edge="1" parent="1" source="gbWEveyItr_fQbQ7YyOv-31" target="gbWEveyItr_fQbQ7YyOv-17">
          <mxGeometry relative="1" as="geometry" />
        </mxCell>
        <mxCell id="gbWEveyItr_fQbQ7YyOv-31" value="抓取状态服务" style="rounded=1;whiteSpace=wrap;html=1;" vertex="1" parent="1">
          <mxGeometry x="800" y="1609" width="120" height="60" as="geometry" />
        </mxCell>
        <mxCell id="gbWEveyItr_fQbQ7YyOv-32" value="询问状态" style="text;html=1;align=center;verticalAlign=middle;resizable=0;points=[];autosize=1;strokeColor=none;fillColor=none;" vertex="1" parent="1">
          <mxGeometry x="980" y="1580" width="70" height="30" as="geometry" />
        </mxCell>
        <mxCell id="gbWEveyItr_fQbQ7YyOv-33" value="获取已推送完的数据" style="text;html=1;align=center;verticalAlign=middle;resizable=0;points=[];autosize=1;strokeColor=none;fillColor=none;" vertex="1" parent="1">
          <mxGeometry x="670" y="1598" width="130" height="30" as="geometry" />
        </mxCell>
        <mxCell id="gbWEveyItr_fQbQ7YyOv-34" value="修改推送状态为已送达" style="text;html=1;align=center;verticalAlign=middle;resizable=0;points=[];autosize=1;strokeColor=none;fillColor=none;" vertex="1" parent="1">
          <mxGeometry x="648" y="1636" width="140" height="30" as="geometry" />
        </mxCell>
        <mxCell id="gbWEveyItr_fQbQ7YyOv-35" value="是否成功、失败重试五次" style="text;html=1;align=center;verticalAlign=middle;resizable=0;points=[];autosize=1;strokeColor=none;fillColor=none;" vertex="1" parent="1">
          <mxGeometry x="661" y="1480" width="160" height="30" as="geometry" />
        </mxCell>
        <mxCell id="gbWEveyItr_fQbQ7YyOv-36" value="保存请求中创日志" style="rounded=1;whiteSpace=wrap;html=1;" vertex="1" parent="1">
          <mxGeometry x="918" y="1673" width="120" height="60" as="geometry" />
        </mxCell>
        <mxCell id="gbWEveyItr_fQbQ7YyOv-37" value="正常处理的数据" style="text;html=1;align=center;verticalAlign=middle;resizable=0;points=[];autosize=1;strokeColor=none;fillColor=none;" vertex="1" parent="1">
          <mxGeometry x="616" y="1772" width="110" height="30" as="geometry" />
        </mxCell>
        <mxCell id="gbWEveyItr_fQbQ7YyOv-38" style="edgeStyle=orthogonalEdgeStyle;rounded=0;orthogonalLoop=1;jettySize=auto;html=1;exitX=0;exitY=0.5;exitDx=0;exitDy=0;entryX=1;entryY=0.5;entryDx=0;entryDy=0;" edge="1" parent="1" source="gbWEveyItr_fQbQ7YyOv-43" target="gbWEveyItr_fQbQ7YyOv-26">
          <mxGeometry relative="1" as="geometry" />
        </mxCell>
        <mxCell id="gbWEveyItr_fQbQ7YyOv-39" style="edgeStyle=orthogonalEdgeStyle;rounded=0;orthogonalLoop=1;jettySize=auto;html=1;exitX=1;exitY=0.5;exitDx=0;exitDy=0;" edge="1" parent="1" source="gbWEveyItr_fQbQ7YyOv-43" target="gbWEveyItr_fQbQ7YyOv-46">
          <mxGeometry relative="1" as="geometry" />
        </mxCell>
        <mxCell id="gbWEveyItr_fQbQ7YyOv-40" style="edgeStyle=orthogonalEdgeStyle;rounded=0;orthogonalLoop=1;jettySize=auto;html=1;exitX=0.5;exitY=1;exitDx=0;exitDy=0;entryX=0.5;entryY=0;entryDx=0;entryDy=0;" edge="1" parent="1" source="gbWEveyItr_fQbQ7YyOv-43" target="gbWEveyItr_fQbQ7YyOv-49">
          <mxGeometry relative="1" as="geometry" />
        </mxCell>
        <mxCell id="gbWEveyItr_fQbQ7YyOv-41" style="edgeStyle=orthogonalEdgeStyle;rounded=0;orthogonalLoop=1;jettySize=auto;html=1;exitX=0.5;exitY=1;exitDx=0;exitDy=0;entryX=0.5;entryY=0;entryDx=0;entryDy=0;" edge="1" parent="1" source="gbWEveyItr_fQbQ7YyOv-43" target="gbWEveyItr_fQbQ7YyOv-52">
          <mxGeometry relative="1" as="geometry" />
        </mxCell>
        <mxCell id="gbWEveyItr_fQbQ7YyOv-42" style="edgeStyle=orthogonalEdgeStyle;rounded=0;orthogonalLoop=1;jettySize=auto;html=1;exitX=0.5;exitY=0;exitDx=0;exitDy=0;entryX=0.5;entryY=1;entryDx=0;entryDy=0;" edge="1" parent="1" source="gbWEveyItr_fQbQ7YyOv-43" target="gbWEveyItr_fQbQ7YyOv-56">
          <mxGeometry relative="1" as="geometry" />
        </mxCell>
        <mxCell id="gbWEveyItr_fQbQ7YyOv-43" value="分功能处理" style="rounded=1;whiteSpace=wrap;html=1;" vertex="1" parent="1">
          <mxGeometry x="702" y="1822" width="120" height="60" as="geometry" />
        </mxCell>
        <mxCell id="gbWEveyItr_fQbQ7YyOv-44" value="同步流程" style="text;html=1;align=center;verticalAlign=middle;resizable=0;points=[];autosize=1;strokeColor=none;fillColor=none;" vertex="1" parent="1">
          <mxGeometry x="639" y="1822" width="70" height="30" as="geometry" />
        </mxCell>
        <mxCell id="gbWEveyItr_fQbQ7YyOv-45" style="edgeStyle=orthogonalEdgeStyle;rounded=0;orthogonalLoop=1;jettySize=auto;html=1;exitX=0.5;exitY=1;exitDx=0;exitDy=0;entryX=0.25;entryY=1;entryDx=0;entryDy=0;" edge="1" parent="1" source="gbWEveyItr_fQbQ7YyOv-46" target="gbWEveyItr_fQbQ7YyOv-7">
          <mxGeometry relative="1" as="geometry">
            <Array as="points">
              <mxPoint x="939" y="2017" />
              <mxPoint x="302" y="2017" />
            </Array>
          </mxGeometry>
        </mxCell>
        <mxCell id="gbWEveyItr_fQbQ7YyOv-46" value="退回接口" style="rounded=1;whiteSpace=wrap;html=1;" vertex="1" parent="1">
          <mxGeometry x="879" y="1822" width="120" height="60" as="geometry" />
        </mxCell>
        <mxCell id="gbWEveyItr_fQbQ7YyOv-47" value="退回" style="text;html=1;align=center;verticalAlign=middle;resizable=0;points=[];autosize=1;strokeColor=none;fillColor=none;" vertex="1" parent="1">
          <mxGeometry x="822" y="1822" width="50" height="30" as="geometry" />
        </mxCell>
        <mxCell id="gbWEveyItr_fQbQ7YyOv-48" style="edgeStyle=orthogonalEdgeStyle;rounded=0;orthogonalLoop=1;jettySize=auto;html=1;exitX=0.5;exitY=1;exitDx=0;exitDy=0;entryX=0.5;entryY=1;entryDx=0;entryDy=0;" edge="1" parent="1" source="gbWEveyItr_fQbQ7YyOv-49" target="gbWEveyItr_fQbQ7YyOv-7">
          <mxGeometry relative="1" as="geometry">
            <Array as="points">
              <mxPoint x="872" y="2003" />
              <mxPoint x="332" y="2003" />
            </Array>
          </mxGeometry>
        </mxCell>
        <mxCell id="gbWEveyItr_fQbQ7YyOv-49" value="附件处理" style="rounded=1;whiteSpace=wrap;html=1;" vertex="1" parent="1">
          <mxGeometry x="812" y="1932" width="120" height="60" as="geometry" />
        </mxCell>
        <mxCell id="gbWEveyItr_fQbQ7YyOv-50" value="同步呈批件" style="text;html=1;align=center;verticalAlign=middle;resizable=0;points=[];autosize=1;strokeColor=none;fillColor=none;" vertex="1" parent="1">
          <mxGeometry x="782" y="1882" width="80" height="30" as="geometry" />
        </mxCell>
        <mxCell id="gbWEveyItr_fQbQ7YyOv-51" style="edgeStyle=orthogonalEdgeStyle;rounded=0;orthogonalLoop=1;jettySize=auto;html=1;exitX=0;exitY=0.5;exitDx=0;exitDy=0;entryX=0.5;entryY=1;entryDx=0;entryDy=0;" edge="1" parent="1">
          <mxGeometry relative="1" as="geometry">
            <mxPoint x="608" y="1961" as="sourcePoint" />
            <mxPoint x="358" y="1666" as="targetPoint" />
          </mxGeometry>
        </mxCell>
        <mxCell id="gbWEveyItr_fQbQ7YyOv-52" value="流程已读、已执状态" style="rounded=1;whiteSpace=wrap;html=1;" vertex="1" parent="1">
          <mxGeometry x="582" y="1932" width="120" height="60" as="geometry" />
        </mxCell>
        <mxCell id="gbWEveyItr_fQbQ7YyOv-53" value="同步状态" style="text;html=1;align=center;verticalAlign=middle;resizable=0;points=[];autosize=1;strokeColor=none;fillColor=none;" vertex="1" parent="1">
          <mxGeometry x="669" y="1882" width="70" height="30" as="geometry" />
        </mxCell>
        <mxCell id="gbWEveyItr_fQbQ7YyOv-54" style="edgeStyle=orthogonalEdgeStyle;rounded=0;orthogonalLoop=1;jettySize=auto;html=1;exitX=0;exitY=0.25;exitDx=0;exitDy=0;entryX=1;entryY=0.25;entryDx=0;entryDy=0;" edge="1" parent="1" source="gbWEveyItr_fQbQ7YyOv-55" target="gbWEveyItr_fQbQ7YyOv-17">
          <mxGeometry relative="1" as="geometry" />
        </mxCell>
        <mxCell id="gbWEveyItr_fQbQ7YyOv-55" value="移动端" style="rounded=1;whiteSpace=wrap;html=1;fillColor=#D4E6FF;" vertex="1" parent="1">
          <mxGeometry x="1229" y="1607" width="120" height="60" as="geometry" />
        </mxCell>
        <mxCell id="gbWEveyItr_fQbQ7YyOv-56" value="保存接收数据日志" style="rounded=1;whiteSpace=wrap;html=1;" vertex="1" parent="1">
          <mxGeometry x="458" y="1712" width="120" height="60" as="geometry" />
        </mxCell>
        <mxCell id="gbWEveyItr_fQbQ7YyOv-57" style="edgeStyle=orthogonalEdgeStyle;rounded=0;orthogonalLoop=1;jettySize=auto;html=1;exitX=0.5;exitY=1;exitDx=0;exitDy=0;" edge="1" parent="1">
          <mxGeometry relative="1" as="geometry">
            <mxPoint x="497" y="1689.9999999999995" as="sourcePoint" />
            <mxPoint x="497" y="1689.9999999999995" as="targetPoint" />
          </mxGeometry>
        </mxCell>
        <mxCell id="gbWEveyItr_fQbQ7YyOv-58" value="正常流程处理逻辑&lt;br&gt;不发待办提醒等后续操作" style="rounded=1;whiteSpace=wrap;html=1;" vertex="1" parent="1">
          <mxGeometry x="435" y="1608" width="156" height="60" as="geometry" />
        </mxCell>
      </root>
    </mxGraphModel>
  </diagram>
</mxfile>
